<svg height="28" viewBox="0 0 40 28" width="40" xmlns="http://www.w3.org/2000/svg" xmlns:xlink="http://www.w3.org/1999/xlink"><linearGradient id="a" x1="16.360368%" x2="65.738445%" y1="-53.203174%" y2="96.212353%"><stop offset="0" stop-color="#0d2537"/><stop offset="1" stop-color="#008996"/></linearGradient><path d="m40.484375 10h-32.96875c-1.93851562 0-3.515625 1.6113598-3.515625 3.5919745v20.816051c0 1.9806147 1.57710938 3.5919745 3.515625 3.5919745h32.96875c1.9385156 0 3.515625-1.6113598 3.515625-3.5919745v-20.816051c0-1.9806147-1.5771094-3.5919745-3.515625-3.5919745zm-.4588281 2.3946497-.4692188.3991881-14.1614843 12.0483605c-.8082813.6875837-1.9815625.6875837-2.7896875 0l-14.16148443-12.0483605-.46921874-.3991881zm-33.6817969 1.7287774 11.5384375 9.8167067-11.5384375 7.84591zm34.140625 21.4819232h-32.96875c-.56625 0-1.03984375-.4125183-1.14835937-.9587379l13.39414067-9.1077307 1.3440625 1.143525c.8385937.713446 1.8666406 1.070169 2.8946093 1.070169 1.0279688 0 2.0559375-.356723 2.8946094-1.070169l1.3440625-1.143525 13.3940625 9.1076509c-.1085937.5463792-.5821875.9588177-1.1484375.9588177zm1.171875-3.8193065-11.5384375-7.8458302 11.5384375-9.8167865z" fill="url(#a)" fill-rule="evenodd" transform="translate(-4 -10)"/></svg>