<svg height="72" viewBox="0 0 72 72" width="72" xmlns="http://www.w3.org/2000/svg" xmlns:xlink="http://www.w3.org/1999/xlink"><linearGradient id="a"><stop offset="0" stop-color="#0d2537"/><stop offset="1" stop-color="#008996"/></linearGradient><linearGradient id="b" x1="16.360368%" x2="65.738445%" xlink:href="#a" y1="37.728639%" y2="55.494874%"/><linearGradient id="c" x1="16.360368%" x2="65.738445%" xlink:href="#a" y1="33.972101%" y2="57.176978%"/><linearGradient id="d" x1="24.768329%" x2="61.804745%" xlink:href="#a" y1="-160.618723%" y2="144.310925%"/><g fill="none" fill-rule="evenodd"><path d="m72 29.0322581c0 16.0336228-12.9986352 29.032258-29.0322581 29.032258-16.0347394 0-29.032258-12.9986352-29.032258-29.032258 0-16.0347395 12.9986352-29.0322581 29.032258-29.0322581 16.0347395 0 29.0322581 12.9986352 29.0322581 29.0322581" fill="#e5e5e5" fill-opacity=".75"/><path d="m61.1612103 22.7609663v-3.600006c0-2.6508044-2.1492143-4.800008-4.800032-4.800008h-25.200168c-2.6508177 0-4.800032 2.1492036-4.800032 4.800008v3.600006z" fill="#fff"/><path d="m26.3609783 62.3610323v4.800008c0 2.2920038 2.5080167 4.800008 4.800032 4.800008h25.200168c2.2920153 0 4.800032-2.5080042 4.800032-4.800008v-4.800008z" fill="#fff"/><path d="m61.1612103 22.7609663v-3.600006c0-2.6508044-2.1492143-4.800008-4.800032-4.800008h-25.200168c-2.6508177 0-4.800032 2.1492036-4.800032 4.800008v3.600006z" fill="url(#b)" fill-opacity=".25"/><path d="m26.3609783 62.3610323v4.800008c0 2.2920038 2.5080167 4.800008 4.800032 4.800008h25.200168c2.2920153 0 4.800032-2.5080042 4.800032-4.800008v-4.800008z" fill="url(#c)" fill-opacity=".25"/><path d="m26.3609783 41.9609983v-19.200032h34.800232v39.600066h-34.800232z" fill="#fff"/><path d="m56.3611783 13.199662c3.2921793 0 5.9613223 2.6691297 5.9613223 5.9612983v46.8387897c0 2.9333681-3.0279454 5.9612983-5.9613223 5.9612983h-25.200168c-2.9333769 0-5.9613223-3.0279302-5.9613223-5.9612983v-46.8387897c0-3.2921686 2.669143-5.9612983 5.9613223-5.9612983zm3.6378217 49.161338h-32.478l.0012686 3.63875c0 1.5405969 1.7318456 3.3751403 3.3048009 3.612899l.1620752.0188222.1718656.0069965h25.200168c1.6506537 0 3.6387417-1.9880781 3.6387417-3.6387177zm-12.0378777 2.4774597v2.3225806h-8.400056v-2.3225806zm12.0381035-40.8009113h-32.4778064v36h32.4778064zm-32.4764772-24.0375484-.000168 5.41277419.2461581.05890038c1.2601311.3204044 2.3065192.76807361 3.519922 1.46876293l.3506941.20730444 3.8493644-3.84875374 5.9127881 5.91275859-1.6423084 1.64231661-4.2713279-4.27070856-3.5180943 3.51917516-.7868851-.50429322c-1.7929354-1.14904338-2.9314355-1.67802433-4.6491971-2.02596732l-.3774076-.07194822-.9561189-.17162248-.000168-5.00611811h-4.8774194l.00012 5.00611811-.9561188.17162248c-1.8072639.32440225-2.9483179.7989582-4.6533582 1.86114931l-1.1613316.74105945-3.5195049-3.51917516-3.44903226 3.44903226 3.51921806 3.5194412-.50430167.7868904c-1.14837615 1.7918764-1.67786543 2.9318982-2.02595162 4.6502553l-.07197275.3775198-.17162383.9561168-5.00730368-.00003v4.8774194l5.00730368.000042.17162383.9561169c.32432161 1.8067965.79832285 2.9462144 1.8610305 4.6519439l.74119554 1.1615216-3.51921806 3.5182466 3.44903226 3.4490322 3.5198549-3.5183305.7870407.5049674c1.7902714 1.1486429 2.9306312 1.6783429 4.6491861 2.0256921l.3775593.0717999.9566725.1712436-.00012 5.0077243 2.4388537.000072v2.3225806h-4.7613143l-.00012-5.4140074-.2462005-.0584603c-1.2612314-.3202638-2.3089316-.7683844-3.5220423-1.4693333l-.350854-.2083355-3.8479537 3.8499483-6.73395061-6.7339169 3.84874305-3.8491927-.20726818-.3508378c-.70069323-1.2133975-1.14836504-2.2597813-1.46877132-3.5199072l-.05892825-.2460292-5.41277419.000042v-9.5225926l5.4116129-.00003.06017323-.2462933c.3205385-1.2606174.76842657-2.3077736 1.46895337-3.5210969l.20700244-.3517066-3.84874305-3.8479981 6.73395061-6.7339169 3.8479537 3.84875374.3517789-.2070387c1.2133287-.70052289 2.2604891-1.14840836 3.5211117-1.46894497l.2462062-.06014537.00012-5.4116129zm6.1391566 27.599686.2326499.8570691c.1895172.698171.449935 1.3679308.7772782 2.0014721l.2044052.375716.4406501.770293-2.6428241 2.6410541 2.6012903 2.6012903 2.6424476-2.6414479.7702874.4406425c.6187453.3539529 1.275271.6417758 1.9617695.8594935l.4154334.1221862.8570719.2326483-.0009452 3.7387355h3.6778064l.0005982-3.7387355.8570719-.2326483c.6981754-.1895166 1.3679395-.4499334 2.0014846-.7772753l.3757183-.2044044.7702874-.4406425 2.6420654 2.6414479 2.600129-2.6012903-2.6412806-2.6410541.4406501-.770293c.3539544-.6187415.6417784-1.2752631.8594969-1.9617573l.1221866-.4154308.2326499-.8570691h3.7009028v2.3225806l-1.9586057-.0004601-.0033775.012402c-.1001321.2854665-.2103636.5665895-.3304946.84295l-.1910311.4139383 3.0542184 3.0550887-5.8855449 5.8855155-3.0529315-3.0540236c-.4124422.1982323-.8308709.3711529-1.2590724.5213501l-.0125405.0023919.0005981 4.3208672h-8.3226206l-.0009453-4.3208672-.0109971-.0023919c-.2854677-.1001315-.5665919-.2103622-.8429534-.3304926l-.4165011-.1908575-3.0525493 3.0540236-5.885545-5.8855155 3.0526749-3.0539274c-.1312415-.2742819-.2518428-.5516768-.3621644-.8330049l-.1615775-.4374467-1.9582235.0004601v-2.3225806zm-8.5009349-16.800028v2.3225806h-2.400016c-5.3238781 0-9.6387817 4.314882-9.6387817 9.6387277 0 5.225256 4.1565721 9.4785712 9.3440697 9.6343095l.294712.0044182v2.3225806c-6.6066014 0-11.9613623-5.3547341-11.9613623-11.9613083 0-6.4964646 5.1777563-11.7824694 11.6320944-11.956865l.3292679-.0044433zm15.6283468 14.3613123c0 1.6782397 1.3604838 3.0387167 3.0387377 3.0387167 1.6137056 0 2.933615-1.2578375 3.0327593-2.8465432l.0059783-.1921735h2.3225807c0 2.9609681-2.4003412 5.3612973-5.3613183 5.3612973-2.8787278 0-5.2275335-2.2688297-5.3558014-5.1158871l-.005517-.2454102zm-18.0283628-8.3613023v2.3225806c-2.009456 0-3.6387417 1.6292775-3.6387417 3.6387177 0 1.9401492 1.5188585 3.5259017 3.4322743 3.632957l.2064674.0057607v2.3225806c-3.2921793 0-5.9613223-2.6691296-5.9613223-5.9612983 0-3.2077541 2.5340187-5.8240102 5.7093411-5.9560682zm33.600224-1.2774254h-25.200168c-2.009456 0-3.6387417 1.6292775-3.6387417 3.6387177l-.0008492 2.4378784h32.4778064l.0006942-2.4378784c0-1.9401491-1.5188584-3.5259017-3.4322743-3.6329569z" fill="url(#d)"/></g></svg>