<svg height="40" viewBox="0 0 32 40" width="32" xmlns="http://www.w3.org/2000/svg" xmlns:xlink="http://www.w3.org/1999/xlink"><linearGradient id="a"><stop offset="0" stop-color="#0d2537"/><stop offset="1" stop-color="#008996"/></linearGradient><linearGradient id="b" x1="28.470635%" x2="60.072605%" xlink:href="#a" y1="-160.618723%" y2="144.310925%"/><linearGradient id="c" x1="17.107896%" x2="65.388711%" xlink:href="#a" y1="-160.618723%" y2="144.310925%"/><g fill="none" fill-rule="evenodd" transform="translate(-8 -4)"><path d="m37.129072 10.9547656c-3.0195524-4.41953122-7.8050877-6.9547656-13.1286065-6.9547656s-10.1090541 2.53523438-13.1286065 6.9547656c-3.00472011 4.3971875-3.69852113 9.9641407-1.85961237 14.8825.49186406 1.343125 1.27373247 2.6480469 2.31833527 3.8708594l11.6170148 13.7995313c.2627344.3123437.6476816.4923437 1.0528688.4923437s.7901344-.1799219 1.0528687-.4923437l11.6137703-13.7957813c1.0492379-1.2298437 1.8301021-2.5333594 2.3178718-3.8657031 1.8426168-4.9272656 1.1488158-10.4942188-1.8559043-14.8914063zm-.4078673 13.9458694c-.3853511 1.0472148-1.0144649 2.0825711-1.868822 3.0784518-.0023743.0023877-.0047487.0047753-.0066481.0076405l-10.8227533 12.7832157-10.8294014-12.7912541c-.8538822-.9950053-1.4829961-2.030282-1.872146-3.0875249-1.55802441-4.1437331-.9667412-8.8327215 1.5821632-12.5423834 2.5568981-3.72152041 6.6100092-5.85590311 11.1193842-5.85590311 4.5092959 0 8.5619321 2.13430311 11.1189093 5.85590311 2.5493794 3.7096619 3.1411374 8.3986503 1.5793141 12.5518544z" fill="url(#b)"/><path d="m24.0004655 12.2983594c-4.2701866 0-7.7446766 3.5132812-7.7446766 7.8321875 0 4.3189062 3.4740265 7.8321875 7.7446766 7.8321875s7.7446766-3.5132813 7.7446766-7.8321875c0-4.3184375-3.47449-7.8321875-7.7446766-7.8321875zm-.0414767 13.0876068c-2.8882792 0-5.2381759-2.3764493-5.2381759-5.2973647 0-2.9209153 2.3498967-5.2973646 5.2381759-5.2973646 2.8882793 0 5.238176 2.3764493 5.238176 5.2973646 0 2.9209154-2.3498967 5.2973647-5.238176 5.2973647z" fill="url(#c)"/></g></svg>