<svg height="72" viewBox="0 0 72 72" width="72" xmlns="http://www.w3.org/2000/svg" xmlns:xlink="http://www.w3.org/1999/xlink"><linearGradient id="a"><stop offset="0" stop-color="#0d2537"/><stop offset="1" stop-color="#008996"/></linearGradient><linearGradient id="b" x1="40.772939%" x2="54.31692%" xlink:href="#a" y1="-160.618723%" y2="144.310925%"/><linearGradient id="c" x1="18.654906%" x2="64.664936%" xlink:href="#a" y1="-160.618723%" y2="144.310925%"/><g fill="none" fill-rule="evenodd"><path d="m72 23.2258065c0 12.8276832-10.3981232 23.2258064-23.2258065 23.2258064-12.8276832 0-23.2258064-10.3981232-23.2258064-23.2258064 0-12.8276833 10.3981232-23.2258065 23.2258064-23.2258065 12.8276833 0 23.2258065 10.3981232 23.2258065 23.2258065" fill="#e5e5e5" fill-opacity=".75"/><g transform="translate(0 3.483871)"><path d="m27.5697929 1.16129048c-6.319742 0-11.6129033 5.80645162-11.6129033 11.61290322-5.8064516 0-10.45161286 4.6451613-10.00103221 11.7487742-6.25703226 2.1867097-6.25703226 13.7996129-.74554839 18.2287742-2.0276129 6.0224516 2.03922581 16.1732903 11.907871 15.3127742 0 11.6129032 18.5794838 11.6384516 18.5806451 2.3225806v-49.9354838c0-3.0042581-.1974193-9.29148391-8.1290322-9.29032262" fill="url(#b)" fill-opacity=".25"/><g fill="#fff"><path d="m53.7918123 13.6451613c0 2.2448118-1.8410946 4.0645161-4.1124281 4.0645161-2.2713336 0-4.1124282-1.8197043-4.1124282-4.0645161s1.8410946-4.06451614 4.1124282-4.06451614c2.2713335 0 4.1124281 1.81970434 4.1124281 4.06451614"/><path d="m64.2434252 25.2580645c0 2.2448118-1.8410946 4.0645161-4.1124281 4.0645161-2.2713336 0-4.1124282-1.8197043-4.1124282-4.0645161s1.8410946-4.0645161 4.1124282-4.0645161c2.2713335 0 4.1124281 1.8197043 4.1124281 4.0645161"/><path d="m53.7918123 38.0322581c0 2.2448117-1.8410946 4.0645161-4.1124281 4.0645161-2.2713336 0-4.1124282-1.8197044-4.1124282-4.0645161 0-2.2448118 1.8410946-4.0645162 4.1124282-4.0645162 2.2713335 0 4.1124281 1.8197044 4.1124281 4.0645162"/><path d="m64.2434252 49.6451613c0 2.2448118-1.8410946 4.0645161-4.1124281 4.0645161-2.2713336 0-4.1124282-1.8197043-4.1124282-4.0645161s1.8410946-4.0645161 4.1124282-4.0645161c2.2713335 0 4.1124281 1.8197043 4.1124281 4.0645161"/><path d="m53.7918123 61.2580645c0 2.2448118-1.8410946 4.0645161-4.1124281 4.0645161-2.2713336 0-4.1124282-1.8197043-4.1124282-4.0645161s1.8410946-4.0645161 4.1124282-4.0645161c2.2713335 0 4.1124281 1.8197043 4.1124281 4.0645161"/></g><path d="m27.5696228 0c3.9980508 0 6.6494539 1.48706878 8.0632055 4.13198703.968218 1.81139134 1.2272872 3.65180542 1.2272872 6.31962607 0 .6413629-.5199274 1.1612903-1.1612904 1.1612903-.6413629 0-1.1612903-.5199274-1.1612903-1.1612903l-.0068722-.62370352c-.1135264-4.99242494-1.6648326-7.50610417-6.9608697-7.50532877-5.4099704 0-10.289122 4.93624742-10.4476403 10.18874579l-.0039726.2624026c0 5.1117489 1.876659 6.8839043 6.9733121 7.3056157l.6271403.0442505.6585681.0320501.6905118.0206136.7229712.0099407c.1232288.0008099.2478315.0012068.373819.0012068.641363 0 1.1612904.5199274 1.1612904 1.1612903 0 .641363-.5199274 1.1612904-1.1612904 1.1612904l-.466069-.0013704-.8848595-.0115532c-3.1331822-.065345-5.0733228-.3940817-6.852975-1.3351805-2.4598556-1.3007975-3.8637531-3.6398466-4.121613-7.1604714-4.7785383.5561817-8.08890391 4.697803-7.7241674 10.4480434.03297009.5197887-.28416363.997954-.77583603 1.1697838-5.14983495 1.799766-5.40972713 12.2023353-.40122266 16.2272902.3795135.3049862.52848794.8143289.37313729 1.2757542-2.08432207 6.1908902 2.40214416 13.7648136 9.6746972 13.8263319.1407719-2.8152184.8162843-5.5217595 1.9701766-7.8426858-2.317394-1.0068555-4.1559781-3.2759461-4.1559781-5.4383939 0-.6413629.5199274-1.1612903 1.1612903-1.1612903.5955513 0 1.0863954.4483048 1.1534775 1.0258594l.0078128.1354309c0 1.2382373 1.3960096 2.8260191 3.0312055 3.4175589 2.1814437-3.1133305 5.4180334-5.1485782 9.5171171-5.1485782.6413629 0 1.1612903.5199274 1.1612903 1.1612903s-.5199274 1.1612903-1.1612903 1.1612903c-3.3642074 0-6.0594558 1.8029791-7.8612194 4.5660382-.0551871.1555209-.1430673.2933682-.2536426.4077733-1.4214146 2.3628347-2.221345 5.3565815-2.2736272 8.5021078l-.0027366.3295001c0 4.599673 3.4495976 7.5503107 8.201832 7.8506019 4.4295406.2799003 7.8986033-1.8929931 8.0510084-5.2942297l.0052241-.2337916v-6.9677419c0-.6413629.5199274-1.1612903 1.1612903-1.1612903.5955513 0 1.0863954.4483047 1.1534775 1.0258593l.0078129.135431v6.9678867c-.0006358 5.1001589-4.8065674 8.2071967-10.5252837 7.845834-5.3412757-.3375124-9.5418832-3.5427384-10.2669982-8.5866782l-.047149-.3753006-.0992754.0010581c-8.48965737-.0832038-13.83235304-8.4286533-12.12711153-15.778386l.08974172-.3611237-.11616615-.1097214c-5.2443128-5.1176843-5.03065847-15.947579.74440947-19.1236383l.25317603-.133479-.00035769-.2268007c.02487807-6.4897463 4.16276748-11.2542599 9.93156045-11.8606851l.155765-.0154819.01412-.141983c.6794486-6.0168415 6.1462631-11.33758862 12.3799794-11.51622444zm22.0646862 55.7419356c3.2066533 0 5.8064516 2.5997984 5.8064516 5.8064517 0 3.2066532-2.5997983 5.8064516-5.8064516 5.8064516-2.8089288 0-5.1522047-1.9948817-5.6902708-4.645088l-4.7613421-.0000733c-.6413629 0-1.1612903-.5199274-1.1612903-1.1612903 0-.5955513.4483047-1.0863955 1.0258593-1.1534775l.135431-.0078129 4.7612744.0002602c.5379372-2.6503725 2.8812919-4.6454215 5.6903385-4.6454215zm0 2.3225807c-1.9239274 0-3.483871 1.5599436-3.483871 3.483871 0 1.9239273 1.5599436 3.4838709 3.483871 3.4838709s3.483871-1.5599436 3.483871-3.4838709c0-1.9239274-1.5599436-3.483871-3.483871-3.483871zm-13.9354839-30.1935484c.5955513 0 1.0863954.4483047 1.1534775 1.0258593l.0078129.135431-.0001155 8.1287418 7.0840382.0002171c.5237811-2.5798468 2.7581926-4.5387031 5.4675605-4.6408948l.2227103-.0041931c3.2066533 0 5.8064516 2.5997983 5.8064516 5.8064516s-2.5997983 5.8064516-5.8064516 5.8064516c-2.8090466 0-5.1524013-1.9950489-5.6903385-4.6454214l-7.0839705-.000611v9.291l17.5356511.0001204c.5237811-2.5798469 2.7581926-4.5387032 5.4675605-4.6408949l.2227103-.0041931c3.2066533 0 5.8064516 2.5997984 5.8064516 5.8064516 0 3.2066533-2.5997983 5.8064516-5.8064516 5.8064516-2.8089288 0-5.1522047-1.9948816-5.6902708-4.6450879l-18.1799356.0000428c-3.8143559 0-5.688146.7241-6.4747666 2.5642157-.2521035.5897374-.9345505.8634438-1.5242879.6113403s-.8634438-.9345504-.6113403-1.5242879c1.0910546-2.5522678 3.2993127-3.6765603 6.9313294-3.9212279l.0008847-19.7946725c0-.6413629.5199274-1.1612903 1.1612903-1.1612903zm24.3870968 18.5806452c-1.9239274 0-3.483871 1.5599435-3.483871 3.4838709s1.5599436 3.483871 3.483871 3.483871 3.483871-1.5599436 3.483871-3.483871-1.5599436-3.4838709-3.483871-3.4838709zm-10.4516129-11.6129033c-1.9239274 0-3.483871 1.5599436-3.483871 3.483871s1.5599436 3.483871 3.483871 3.483871 3.483871-1.5599436 3.483871-3.483871-1.5599436-3.483871-3.483871-3.483871zm-13.9354839-18.5806451c.5955513 0 1.0863954.4483047 1.1534775 1.0258593l.0078129.135431-.0001155 6.966645 17.5357866.0003567c.5240307-2.5795175 2.7582906-4.538045 5.467425-4.640228l.2227103-.0041931c3.2066533 0 5.8064516 2.5997984 5.8064516 5.8064517 0 3.2066532-2.5997983 5.8064516-5.8064516 5.8064516-2.8089288 0-5.1522047-1.9948817-5.6902708-4.645088l-22.1810453-.0004217c-.4307472 0-1.1480297.3691694-2.0470353 1.1002317-.4412233.3587984-.9092707.7877816-1.435799 1.3092375l-.4291585.4320361-1.1726397 1.22441c-2.2377102 2.3525224-6.0360176 3.2708756-8.9928135 2.3539238-.4649695 2.0198916-1.8994692 3.7833268-3.7838006 4.4485243-.6047851.2134982-1.2681347-.1037024-1.4816329-.7084874-.1982484-.5615861.0610956-1.1736693.583381-1.4291831l.1251064-.0524498c1.3554339-.4784886 2.3979276-2.0535372 2.3979276-3.6639076 0-1.9128584-1.5347862-3.3270968-3.5976775-3.3270968-.6413629 0-1.1612903-.5199274-1.1612903-1.1612903 0-.641363.5199274-1.1612903 1.1612903-1.1612903 2.9341489 0 5.3245218 1.8991637 5.824146 4.5923418 2.0328486.9894571 5.2029667.4463624 7.0438-1.2938111l.2222126-.2227904 1.0001467-1.0469502.3414737-.3487735c.6919869-.6995759 1.300304-1.2669057 1.8899767-1.7464217 1.1941852-.9710994 2.256095-1.5414061 3.2909967-1.613131l.2213896-.0077027 2.3223942-.0007485.0005348-6.966645c0-.6413629.5199274-1.1612903 1.1612903-1.1612903zm24.3870968 5.8064516c-1.9239274 0-3.483871 1.5599436-3.483871 3.483871 0 1.9239273 1.5599436 3.4838709 3.483871 3.4838709s3.483871-1.5599436 3.483871-3.4838709c0-1.9239274-1.5599436-3.483871-3.483871-3.483871zm-10.4516129-13.93548388c3.2066533 0 5.8064516 2.59979838 5.8064516 5.80645158 0 3.2066533-2.5997983 5.8064516-5.8064516 5.8064516-2.8089288 0-5.1522047-1.9948816-5.6902708-4.6450879l-8.2452131-.0000733c-5.4583488 0-8.6364501-1.2052334-10.1170494-4.8619749-.2407031-.59448169.0460911-1.27153271.6405727-1.51223583.5944817-.24070312 1.2715327.04609104 1.5122358.64057268.9934537 2.45360325 3.2163754 3.35768725 7.5631993 3.40874615l8.6462547.0022379c.5380661-2.6502064 2.881342-4.64508798 5.6902708-4.64508798zm0 2.32258068c-1.9239274 0-3.483871 1.5599435-3.483871 3.4838709s1.5599436 3.483871 3.483871 3.483871 3.483871-1.5599436 3.483871-3.483871-1.5599436-3.4838709-3.483871-3.4838709z" fill="url(#c)"/></g></g></svg>