<svg height="72" viewBox="0 0 70 72" width="70" xmlns="http://www.w3.org/2000/svg" xmlns:xlink="http://www.w3.org/1999/xlink"><linearGradient id="a"><stop offset="0" stop-color="#0d2537"/><stop offset="1" stop-color="#008996"/></linearGradient><linearGradient id="b" x1="16.360368%" x2="65.738445%" xlink:href="#a" y1="-39.82225%" y2="90.220638%"/><linearGradient id="c" x1="16.379356%" x2="65.729562%" xlink:href="#a" y1="-160.618723%" y2="144.310925%"/><linearGradient id="d" x1="16.360368%" x2="65.738445%" xlink:href="#a" y1="-155.527763%" y2="142.031293%"/><g fill="none" fill-rule="evenodd"><path d="m58.0645161 42.9677419c0 16.0344544-12.9978037 29.0322581-29.032258 29.0322581-16.0344544 0-29.0322581-12.9978037-29.0322581-29.0322581 0-16.0344543 12.9978037-29.032258 29.0322581-29.032258 16.0344543 0 29.032258 12.9978037 29.032258 29.032258" fill="#e5e5e5" fill-opacity=".75"/><path d="m34.4388104 17.5308926c3.8551146 2.3112826 4.4720789 8.2679736 4.4720789 8.2679736s-5.6354279 2.2115237-9.4905425-.099759c-3.8563314-2.3112826-8.2493124-10.5311796-8.2493124-10.5311796s9.4126614.0516823 13.267776 2.362965" fill="#fff"/><path d="m34.4388104 17.5308926c3.8551146 2.3112826 4.4720789 8.2679736 4.4720789 8.2679736s-5.6354279 2.2115237-9.4905425-.099759c-3.8563314-2.3112826-8.2493124-10.5311796-8.2493124-10.5311796s9.4126614.0516823 13.267776 2.362965" fill="url(#b)" fill-opacity=".25"/><path d="m62.3602808 3.93374777c-6.017532 3.83891668-13.6097226 1.85575684-19.149016 8.63696153-2.0699337 2.533637-2.5153163 8.9049886 1.0586962 12.5395798l3.7382929.7764371c2.3960608.5480732 7.1370729 1.0264354 10.6234692-2.5660887 5.1766595-5.3353009 6.8742242-14.02514668 3.7285577-19.38688973" fill="#fff"/><path d="m62.3602808 3.93374777c-6.017532 3.83891668-13.6097226 1.85575684-19.149016 8.63696153-2.0699337 2.533637-2.5153163 8.9049886 1.0586962 12.5395798l3.7382929.7764371c2.3960608.5480732 7.1370729 1.0264354 10.6234692-2.5660887 5.1766595-5.3353009 6.8742242-14.02514668 3.7285577-19.38688973" fill="url(#c)" fill-opacity=".25"/><path d="m60.6778057 40.7502087-6.0844612-4.8076602h-3.6506767l-3.6506766-2.4038301h-2.4337845l-2.4337845-1.2019151-3.6506766 3.6057452-2.4337845-1.2019151-4.8675689 2.4038301-2.4337845 3.6057452v6.0095752h31.639198z" fill="#008996"/><path d="m63.361792 3.34610254c3.4216731 5.83219248 1.6338279 15.08315496-3.8968172 20.78328956-3.1989481 3.2963259-7.4258124 3.8706724-11.7157875 2.8893865-.6252153-.1430113-1.0161188-.765782-.8731075-1.3909973s.765782-1.0161189 1.3909973-.8731076c3.5808947.8190914 7.0121921.3528465 9.5310704-2.2427078 4.4727071-4.6097755 6.155318-11.8905529 4.1413952-16.81221622l-.0601879-.13833033-.1208484.0655306c-1.1201105.58687844-2.2900345 1.01667881-3.8863063 1.45239696l-.7683851.20211441c-.1335668.03395361-.2699991.06809061-.4094683.1024852l-.8746295.21005212-1.6303343.37296888c-.3197082.07313389-.6292688.14628247-.9292987.21988927l-.8721142.22263864c-3.9421915 1.0495353-6.137237 2.27581837-8.2775089 4.89593987-1.736837 2.1259205-1.8382387 6.6336325-.0237829 9.6700705 1.679275-2.7254378 4.0436789-5.2196583 7.162275-7.8324051l.5300588-.4389381 3.7795395-3.0330709.92927-.75839c.0450797-.0375185.0861437-.0719282.1228073-.1029286.4897569-.4141069 1.2224834-.3527805 1.6365903.1369765.414107.4897569.3527805 1.2224833-.1369764 1.6365903l-1.019167.8353895-3.9288961 3.1545919c-3.6209772 2.9804668-6.1571567 5.7180621-7.7661204 8.8134631-.039083.1668907-.116638.3253261-.2310045.4633666-.8467805 1.7443856-1.4069943 3.6104066-1.7089155 5.7007687l1.672764.8258545 2.163088.0006538c.18161 0 .3600341.0425832.521215.123537l.1174329.0678441 3.3589093 2.2118361 3.3037961.0006129c.2090349 0 .413183.0563969.5914496.161897l.128519.0882181 6.0844612 4.8076602c.2787282.2202382.4413217.5559369.4413217.9111753v6.0095752c0 .641363-.5199274 1.1612903-1.1612903 1.1612903h-31.639198c-.6413629 0-1.1612903-.5199273-1.1612903-1.1612903v-6.0095752c0-.2315346.0692109-.4577838.1987448-.6496933l2.4337845-3.6057451c.1128892-.1672498.2674096-.3021985.4483331-.3915468l4.8675689-2.4038301c.3241233-.1600671.7043015-.1600671 1.0284248 0l1.6925362.8350582 2.5027975-2.4715152c.000145-.0013378.0002924-.0026758.000442-.0040142.2811475-2.5136384.8764043-4.7337708 1.8108678-6.7874613-3.0922517-3.8364456-3.1493585-10.252581-.5490455-13.435412 2.7640738-3.38378 5.6076251-4.77316559 10.8601421-6.01694579l2.0545682-.47163273.7788083-.18610038.714069-.17953984c.1139793-.02952623.225533-.05889132.3347973-.0881514l.6292003-.17474912c.1006505-.02906445.1992835-.0581361.2960351-.08727106l.5590199-.1760185c.5386186-.17767609 1.0192972-.36167163 1.4714126-.56410683l.4436823-.20903064c.4363372-.21607499.8539035-.45462969 1.2820755-.72778431.5550152-.35407494 1.2930717-.17644493 1.6262099.39138424zm-20.7110823 30.39751036-3.0609081 3.0251606c-.3522515.3479161-.8863477.4342435-1.3302684.215015l-1.9204364-.9477885-4.0772903 2.0136774-2.0624517 3.0553549v4.4930322h29.3167742v-4.2851613l-5.328-4.2096774-3.2454612.000613c-.18161 0-.3600341-.0425832-.521215-.123537l-.1174329-.0678441-3.3600199-2.2131029-2.0857933.0006539c-.1337615 0-.266175-.0231067-.3914843-.0679763l-.1227281-.052074zm-21.2572938-10.6873466c.4437887.4630313.4281893 1.1981542-.0348421 1.6419428-1.05404 1.010236-1.6816118 2.3760954-1.7386212 3.8556294-.1210677 3.1209748 2.3347942 5.749647 5.4903039 5.8665596.6409232.0237465 1.1412438.5625676 1.1174974 1.2034908s-.5625676 1.1412438-1.2034908 1.1174974c-4.4348653-.1643133-7.8961552-3.8691617-7.7251573-8.2772759.080446-2.0877707.9684485-4.0204366 2.4523673-5.4426863.4630313-.4437886 1.1981542-.4281892 1.6419428.0348422zm45.4600628-5.4468249c2.8673013 1.8191997 3.6886963 5.5884506 1.8263468 8.4094032-1.8542188 2.8048833-5.661849 3.604891-8.5140224 1.79434-.5414771-.3437281-.7017844-1.0613286-.3580564-1.6028057.3437281-.5414771 1.0613286-.7017844 1.6028057-.3580564 1.7863489 1.1339689 4.177663.6315383 5.3313836-1.1136985 1.1440761-1.732964.6407091-4.0428346-1.1327413-5.1680252-.5415586-.3435995-.7020362-1.061162-.3584367-1.6027207.3435995-.5415586 1.061162-.7020362 1.6027207-.3584367zm-45.6707784-3.6028692.554197.0098924.5510873.0168333.9639868.0423564c1.220393.0628877 2.4727357.1621397 3.7089521.3054768 3.4895855.4046114 6.2866663 1.0815721 8.0750265 2.1537597 1.5425811.924834 2.7163702 2.3700621 3.5837528 4.1766179.5223103 1.0878507.9027105 2.2422987 1.1668571 3.3953066.0198797.0867754.0386202.1712558.0562627.2533053l.0930072.4620404c.0134147.0717828.0258135.1408629.0372377.2071046l.0571767.3623021.0357561.2876579c.0537518.5189656-.2451981 1.0100722-.7308804 1.2006695l-.3048444.1121844-.3893403.1282331c-.0716051.0223967-.1464862.0452275-.224521.0683751l-.5050736.1417484-.2790845.0719655c-1.7904864.4481553-3.6247654.6404394-5.3722285.4250674-1.261878-.1555244-2.4185337-.5218598-3.4366817-1.1322769-.4724092-.2831373-.9518812-.6412091-1.4404748-1.0693383-1.1830237-1.0366221-2.4105015-2.4734229-3.6641933-4.2147786-.8978321-1.2470729-1.7575983-2.5785081-2.5512068-3.9094579-.1388123-.2328003-.2706621-.4573758-.3950876-.672382l-.3505412-.6149659-.2750078-.4989759c-.4158485-.778112.1536473-1.7174605 1.0358659-1.7087213zm2.0333328 2.3934278.4106254.6778435c.6284568 1.0189717 1.2929898 2.0262347 1.9769166 2.976197 1.1596093 1.6106769 2.2811706 2.9234991 3.3099604 3.8249741.3897724.3415373.7594561.6176187 1.1039509.8240909.7216309.4326442 1.5698986.7013071 2.5266458.8192246 1.4239118.1754948 2.9877582.0115597 4.5241833-.3730046l.5365877-.1444223-.0822737-.3794361c-.2281954-.9960796-.5559374-1.9907191-.9966801-2.9086835-.6858668-1.4285007-1.5775167-2.5263449-2.6842786-3.1898893-1.4257221-.8547727-3.9666459-1.4697372-7.1482544-1.8386393-1.1832659-.1371976-2.387178-.2326112-3.5609707-.2930977zm9.7227142-16.4c2.8379408 0 5.1441786 2.27833403 5.1441786 5.09515829 0 2.81670615-2.306114 5.09395641-5.1441786 5.09395641-2.83709 0-5.1429617-2.2774917-5.1429617-5.09395641 0-2.81658277 2.3059955-5.09515829 5.1429617-5.09515829zm0 2.32258065c-1.5604182 0-2.820381 1.24498091-2.820381 2.77257764 0 1.52725628 1.2596225 2.77137572 2.820381 2.77137572 1.5618414 0 2.821598-1.24398925 2.821598-2.77137572 0-1.52772702-1.2600969-2.77257764-2.821598-2.77257764z" fill="#fff"/><path d="m58.2440212 41.9521237-7.5374305 4.767997c-.5135285-1.3773946-1.8423748-2.3641669-3.4145995-2.3641669h-7.3013534c-1.6732268 0-4.2177485-2.4038301-6.232922-2.4038301h-7.1528925c-2.9412285 0-5.8203955 2.2439754-7.3013534 3.6057452-2.2877574 2.2596003-6.6478822 6.6874553-7.3013533 7.2114903 3.6385077 3.1081523 10.4969123 9.8340689 12.1689222 11.29079 2.2622027-2.2331582 3.1468833-4.0792997 5.0160298-4.0792997h18.1049226c1.6963477-.9350899 12.1689222-9.6153204 12.1689222-9.6153204s7.1090844-7.5624495 8.5182456-10.8172355c-.8846806-1.1766748-6.3886842-2.929067-9.7351378 2.4038301" fill="#008996"/><path d="m19.6198672 61.3906001-3.2869482-3.1102571-1.5415634-1.4394732-1.3569067-1.2481008-.9005246-.8132459-.8032425-.7101128-.4828434-.4170677c-.5168785-.4415374-.5397081-1.2203103-.0784777-1.6926554l.4173422-.3758489 1.2896885-1.2562323 1.8492075-1.8408163 3.375425-3.3722299.4164093-.4115251c2.4273017-2.2319515 5.0589381-3.7789725 7.7377282-3.904016l.3496619-.0081853h7.1528925c.8237543 0 1.6403273.2523919 2.6536906.7430509l.4580994.2305747 1.3674469.7367641.3713529.1936579.3159008.1570344.2676136.123403.2264915.0927634c.2083187.0784409.3657014.1154105.5043904.1243724l.0679359.0022093h7.3013534c1.5283808 0 2.8919595.7063726 3.7738549 1.8088646l.0587991.0766009 6.2825806-3.9739355.0527033-.0785594c1.6212103-2.4105798 3.8172691-3.6686627 6.223476-3.8607369l.301844-.0184633c2.047975-.0873847 4.1352979.6554731 4.9221182 1.7019882.2508396.3336308.3033303.7762164.137489 1.1592657-.3051754.7048735-.8294258 1.5725641-1.5478186 2.5900911l-.4541334.6283928c-.1590105.2153885-.3255873.4366666-.4995308.6637304l-.5437315.6984451-.288067.3620457c-.3113892.3887488-.6381685.7883146-.97862 1.1971441-.7265596.8724853-1.4910187 1.7585268-2.2648683 2.631886l-1.0428015 1.163388-1.1182448 1.2161201-.1050535.0986926-2.6751505 2.2010135-1.6557001 1.3504649-1.882228 1.5222495-2.4181059 1.9269852-1.2411633.967063-.8371394.6360993-.6944656.5096703-.4248915.2969731-.2366598.1564725-.1988144.1227045c-.029955.0176101-.058313.0337932-.0850639.0485393-.1287721.0709839-.2694505.11665-.4144519.1350466l-.1461614.0092344h-18.1049226c-.4157214 0-.7623926.1567706-1.2273683.5664858l-.1677042.1629109-.4009924.422938-1.8390678 2.0022811-.4487885.4727887c-.0419416.0428852-.0808354.0820649-.1162748.1170494-.4323587.4268076-1.1206129.4482333-1.5786822.0491453l-.1661518-.1491754-2.2464602-2.0988254zm-2.5393125-5.5921246 6.7490792 6.3651293.2833984.2650404 1.5043197-1.6364359.4640288-.4900383.2376231-.2384175.1052019-.097723c.7862607-.6928167 1.5777004-1.0788238 2.5061525-1.1383471l.2567103-.0081242 17.7782772.0004138.218734-.1480216.5697569-.4093813.9450245-.7120341 1.182208-.917344 1.6992758-1.3457928 1.2186363-.9777992 1.607897-1.3013656 3.5015719-2.8665834.7541304-.6230704 1.0422338-1.1340137c.0856917-.0945152.1731148-.1912175.2621349-.2899821 1.0170409-1.1283696 2.0338818-2.2936854 2.9812353-3.4313101l.6436586-.7823392.3069889-.3805563c.2959652-.3694929.5744633-.7250931.8341845-1.0652317l.4940184-.6591971c.4682061-.637652.8578114-1.2092743 1.1583365-1.7023167l.1101124-.1856337-.0839852-.0349395c-.5273308-.2121539-1.2973157-.3868615-2.0892273-.3888708l-.2380106.0047134c-1.8705182.0798128-3.563997 1.0401598-4.8565166 3.1003789-.0691779.1102665-.156233.2078518-.2573177.2888941l-.1056188.075385-6.8157754 4.3100518.0026837.0128785c.0229415.1533858.0385131.3091706.0463451.4669924l.0058971.2382152c0 2.5562933-2.0286398 4.6374285-4.5720595 4.7612106l-.2399075.0058249h-12.1689223c-.641363 0-1.1612903-.5199274-1.1612903-1.1612904 0-.5955513.4483047-1.0863954 1.0258593-1.1534774l.135431-.0078129h12.1689223c1.3782246 0 2.4893863-1.0974858 2.4893863-2.4444548 0-.1171278-.008402-.2323691-.0246509-.3451663l-.0256298-.1395004-.0692218-.0964619c-.0979574-.1548665-.1547459-.3240439-.1732518-.4947087l-.0048813-.0823778-.0701388-.1210833c-.4083499-.6518045-1.119615-1.101888-1.9434274-1.1590022l-.1781845-.0061543h-7.3013534c-.5880288 0-1.0383636-.0959366-1.7297405-.4055767l-.3675287-.173174-.4182228-.2120625-.4794374-.2542223-1.0565593-.5729549-.2732133-.1421935c-.7723098-.394056-1.339419-.6001646-1.7697488-.6374457l-.1384712-.0062005h-7.1528925c-2.0571094 0-4.376834 1.3329124-6.4852973 3.2706799l-6.1568038 6.1341244-.2269803.2206204 1.0294322.9247786 1.0959443 1.0029772z" fill="#fff"/><path d="m21.492659 70.8262098 7.5593346-7.4699021-16.7918959-16.5852258-7.5593345 7.4699021z" fill="#fff"/><path d="m21.492659 70.8262098 7.5593346-7.4699021-16.7918959-16.5852258-7.5593345 7.4699021z" fill="url(#d)" fill-opacity=".25"/><path d="m11.4438422 45.9450539-7.55933447 7.4699021c-.46012454.4546809-.46003486 1.1976831.00019942 1.652253l16.79189585 16.5852258c.4523985.4468305 1.1800209.4467426 1.6323115-.0001971l7.5593345-7.469902c.4601246-.4546809.4600349-1.1976831-.0001994-1.652253l-16.7918958-16.5852258c-.4523985-.4468305-1.1800209-.4467427-1.6323116.000197zm.8158997 2.4575267 15.139742 14.9539355-5.9074839 5.8366452-15.13974194-14.9527742z" fill="#fff"/></g></svg>