<svg height="40" viewBox="0 0 24 40" width="24" xmlns="http://www.w3.org/2000/svg" xmlns:xlink="http://www.w3.org/1999/xlink"><linearGradient id="a" x1="37.889732%" x2="55.66584%" y1="-160.618723%" y2="144.310925%"><stop offset="0" stop-color="#0d2537"/><stop offset="1" stop-color="#008996"/></linearGradient><path d="m33.6 4c1.3254 0 2.4 1.15548387 2.4 2.58064516v34.83870964c0 1.4251613-1.0746 2.5806452-2.4 2.5806452h-19.2c-1.3254 0-2.4-1.1554839-2.4-2.5806452v-34.83870964c0-1.42516129 1.0746-2.58064516 2.4-2.58064516zm-8.08 34.9892473h-3.6l-.1597789.0143212c-.4146653.0752639-.72911.4381946-.72911.8745677 0 .4909198.3979691.8888889.8888889.8888889h3.6l.1597789-.0143212c.4146653-.0752639.72911-.4381946.72911-.8745677 0-.4909198-.3979691-.8888889-.8888889-.8888889zm7.9733333-31.43369174h-19.0133333v29.03225804h19.0133333z" fill="url(#a)" fill-rule="evenodd" transform="translate(-12 -4)"/></svg>