<svg height="72" viewBox="0 0 72 72" width="72" xmlns="http://www.w3.org/2000/svg" xmlns:xlink="http://www.w3.org/1999/xlink"><linearGradient id="a"><stop offset="0" stop-color="#0d2537"/><stop offset="1" stop-color="#008996"/></linearGradient><linearGradient id="b" x1="16.360368%" x2="65.738445%" xlink:href="#a" y1="41.964356%" y2="53.598203%"/><linearGradient id="c" x1="16.360368%" x2="65.738445%" xlink:href="#a" y1="49.780834%" y2="50.098138%"/><linearGradient id="d" x1="19.558192%" x2="64.24233%" xlink:href="#a" y1="-160.618723%" y2="144.310925%"/><linearGradient id="e" x1="16.360368%" x2="65.738445%" xlink:href="#a" y1="-10.630005%" y2="77.148924%"/><g fill="none" fill-rule="evenodd"><path d="m48.7741935 46.4516129c-12.8270967 0-23.2258064-10.3987097-23.2258064-23.2258064 0-12.8270968 10.3987097-23.2258065 23.2258064-23.2258065 12.8270968 0 23.2258065 10.3987097 23.2258065 23.2258065 0 12.8270967-10.3987097 23.2258064-23.2258065 23.2258064z" fill="#e5e5e5" fill-opacity=".75"/><g transform="translate(0 4.645161)"><path d="m27 10.8619787v2.3225806h-7.875v-2.3225806zm-10.125 0v2.3225806h-2.25v-2.3225806zm-4.5 0v2.3225806h-2.25v-2.3225806zm45.9135-4.47882104c1.7974353 0 3.4607678.89593543 4.5557664 2.31288428l.0523788.0717.0455862.00164468c1.5544603.06183838 2.9892309.84920803 3.9860162 2.00481768l.0723976.0873441 3.8743548.0004303v2.3225806h-5.0768787l-.3445392-.5190629c-.633997-.9551436-1.7271041-1.6157845-2.8166896-1.5748221l-.2041431.0160018-.7562892.0905964-.3843979-.6575859c-.6516095-1.11470226-1.7987005-1.83394829-3.0035623-1.83394829-1.7613534 0-3.348193 1.52667379-3.4737643 3.14815979l-.0078735.1804825-.0110059 1.1501787h-12.0458563v-2.3225806l9.8785161-.0004303.0065819-.0260441c.5880064-2.37553855 2.8208714-4.32689413 5.4025198-4.44653399zm-17.7885 4.47882104v2.3225806h-2.25v-2.3225806zm-4.5 0v2.3225806h-2.25v-2.3225806zm-25.875-5.58456489v2.32258065h-2.25v-2.32258065zm-4.5 0v2.32258065h-2.25v-2.32258065zm17.973-5.27741381c2.3454983 0 4.4533119 1.25422746 5.5947904 3.19950616l.0322419.05791319.2729231-.0200976.2976696-.00720942c1.4453588 0 2.7838406.76557476 3.6098066 1.91724672l.0885039.12954418 10.3810645.00051058v2.32258065h-11.81656l-.3061359-.69076177c-.3486901-.78678082-1.1492435-1.35653972-1.9566791-1.35653972-.2655168 0-.4815874.02558787-.6600347.07688797l-.1269659.04329806-1.0990198.43970489-.4186056-1.10722817c-.6047953-1.5997069-2.1455963-2.68277507-3.892999-2.68277507-1.9897118 0-4.0207856 2.1250354-4.1531287 3.9382691l-.0068333.18019378-.0023347 1.15895093h-7.0607033v-2.32258065l4.8817742-.00051058.0423696-.17032169c.6932177-2.57516404 3.2539622-4.9698875 6.057956-5.10094068z" fill="url(#b)"/><path d="m21.375 64.4738016v2.3225806h-12.375v-2.3225806zm16.875 0v2.3225806h-12.375v-2.3225806zm16.875 0v2.3225806h-12.375v-2.3225806zm16.875 0v2.3225806h-12.375v-2.3225806zm-65.25 0v2.3225806h-2.25v-2.3225806zm-4.5 0v2.3225806h-2.25v-2.3225806z" fill="url(#c)"/><path d="m66.375 41.070043-5.488875-6.8444428c-.63225-.627705-1.490625-.9806495-2.386125-.9806495h-7.875v20.1044335h15.97275c1.7415 0 3.15225-1.3972581 3.15225-3.1262394v-5.8090644c0-1.8507248-1.512-3.3462713-3.375-3.3440374" fill="url(#d)" fill-opacity=".25"/><path d="m55.125 43.2968324h5.625l1.125-1.116913-3.375-4.4676519h-3.375z" fill="#fff"/><path d="m14.625 42.1799194v-20.1044336h36v31.2735634h-36v-7.8183909" fill="#fff"/><path d="m51.7862903 20.9141955-.0002903 11.169 6.714.0004648c1.1214087 0 2.2002445.4127073 3.0303226 1.1539836l.1739913.1638434.0877658.097586 5.1702429 6.4469912.1017517.0137696c2.1015833.3165201 3.7314021 2.067204 3.8413045 4.2218883l.0059115.232358v5.8090644c0 2.371976-1.9322818 4.2875298-4.3135403 4.2875298l-2.547436.0003588c-.5415876 2.543542-2.8205033 4.4493108-5.5448015 4.4493108s-5.0032139-1.9057688-5.5448015-4.4493108h-22.660397c-.5415876 2.543542-2.8205033 4.4493108-5.5448015 4.4493108s-5.0032139-1.9057688-5.5448015-4.4493108l-5.7470013-.0006939v-8.9796812h2.3225806l-.0008709 6.6565675 3.423888.0001958c.5390434-2.5468502 2.819547-4.4559222 5.5462051-4.4559222s5.0071617 1.909072 5.5462051 4.4559222l19.1611211-.0001958v-28.9509677h-33.6774193l.0008709 18.9436613-.0362903-.0007239v1.1620142h-15.75v-2.3225806l13.463-.0004336v-13.314l-4.463.0002325v-2.3225806l4.463-.0006519.0007097-4.467zm9.8477294 33.5973886h-6.2570144c.4777529 1.2414792 1.696514 2.1261794 3.1285072 2.1261794s2.6507543-.8847002 3.1285072-2.1261794zm-33.75 0h-6.2570144c.4777529 1.2414792 1.696514 2.1261794 3.1285072 2.1261794s2.6507543-.8847002 3.1285072-2.1261794zm23.9019803-20.1063886v17.782l1.1733074.0002261c.5243255-2.4773117 2.6963126-4.351197 5.3238853-4.4516784l.2223198-.0042438c2.7266581 0 5.0071617 1.909072 5.5462051 4.4559222l2.5460324.0006723c1.1030315 0 1.9909597-.8802413 1.9909597-1.9649491v-5.8090644c0-1.205692-.988111-2.1842158-2.2123173-2.1827479l-.5581542.0006692-5.7864963-7.2156146-.1073599-.0971371c-.3470947-.2885535-.7763414-.4649109-1.2290826-.5044916l-.1952994-.0085174zm6.7195125 15.6488846c-1.4346835 0-2.6553329.8880275-3.131192 2.1331802h6.262384c-.4758591-1.2451527-1.6965085-2.1331802-3.131192-2.1331802zm-33.75 0c-1.4346835 0-2.6553329.8880275-3.131192 2.1331802h6.262384c-.4758591-1.2451527-1.6965085-2.1331802-3.131192-2.1331802zm33.7444875-13.5031029c.3641083 0 .707138.1707723.9266114.4612999l3.375 4.4676519c.3502321.4636193.3039129 1.114732-.1084225 1.5241034l-1.125 1.1169129c-.2175385.2159747-.5116469.3371774-.8181889.3371774h-5.625c-.6413629 0-1.1612903-.5199274-1.1612903-1.1612903v-5.5845649c0-.641363.5199274-1.1612903 1.1612903-1.1612903zm-.5783226 2.3220551h-1.636258v3.2620645h3.9843871l.0661935-.0661936zm-47.7966774-5.6727941v2.3225807h-10.125v-2.3225807zm-3.375-7.8183908v2.3225806h-2.25v-2.3225806z" fill="url(#e)"/><g fill="#fff"><path d="m62.0304509 53.3459218c0 1.9241244-1.578081 3.483871-3.5249384 3.483871s-3.5249384-1.5597466-3.5249384-3.483871 1.578081-3.483871 3.5249384-3.483871 3.5249384 1.5597466 3.5249384 3.483871"/><path d="m28.2804509 53.3459218c0 1.9241244-1.578081 3.483871-3.5249384 3.483871s-3.5249384-1.5597466-3.5249384-3.483871 1.578081-3.483871 3.5249384-3.483871 3.5249384 1.5597466 3.5249384 3.483871"/></g></g></g></svg>