<svg id="linkedin" xmlns="http://www.w3.org/2000/svg" xmlns:xlink="http://www.w3.org/1999/xlink" width="33.524" height="33.524" viewBox="0 0 33.524 33.524">
  <defs>
    <linearGradient id="linear-gradient" x1="0.164" y1="-1.606" x2="0.657" y2="1.443" gradientUnits="objectBoundingBox">
      <stop offset="0" stop-color="#0d2537"/>
      <stop offset="1" stop-color="#008996"/>
    </linearGradient>
    <clipPath id="clip-path">
      <path id="Mask" d="M16.762,0A16.762,16.762,0,1,1,0,16.762,16.762,16.762,0,0,1,16.762,0Z" transform="translate(0 0)" fill="url(#linear-gradient)"/>
    </clipPath>
  </defs>
  <g id="Grupo_11" data-name="Grupo 11" transform="translate(0 0)">
    <path id="Mask-2" data-name="Mask" d="M16.762,0A16.762,16.762,0,1,1,0,16.762,16.762,16.762,0,0,1,16.762,0Z" transform="translate(0 0)" fill="url(#linear-gradient)"/>
    <g id="Enmascarar_grupo_13" data-name="Enmascarar grupo 13" clip-path="url(#clip-path)">
      <path id="Shape" d="M9.534,17H6.013V5.65h3.38V7.2h.05a3.722,3.722,0,0,1,3.334-1.832c3.711,0,4.223,2.6,4.223,5.4V17H13.479V11.475c0-1.268,0-3.005-1.832-3.005-1.862,0-2.113,1.471-2.113,2.911V17ZM3.805,17H.281V5.65H3.805V17ZM2.041,4.1A2.051,2.051,0,1,1,4.082,2.041,2.053,2.053,0,0,1,2.041,4.1Z" transform="translate(9 8)" fill="#fff"/>
    </g>
  </g>
</svg>
