<svg id="icon_youtube" data-name="icon/youtube" xmlns="http://www.w3.org/2000/svg" xmlns:xlink="http://www.w3.org/1999/xlink" width="33.524" height="33.524" viewBox="0 0 33.524 33.524">
  <defs>
    <linearGradient id="linear-gradient" x1="0.164" y1="-1.606" x2="0.657" y2="1.443" gradientUnits="objectBoundingBox">
      <stop offset="0" stop-color="#0d2537"/>
      <stop offset="1" stop-color="#008996"/>
    </linearGradient>
  </defs>
  <path id="Path" d="M16.762,0A16.762,16.762,0,1,1,0,16.762,16.762,16.762,0,0,1,16.762,0Z" fill="url(#linear-gradient)"/>
  <path id="Shape" d="M15.407,18.848H3.443A3.382,3.382,0,0,1,0,15.539v-2.8A3.382,3.382,0,0,1,3.443,9.433H15.407a3.382,3.382,0,0,1,3.444,3.308v2.8A3.383,3.383,0,0,1,15.407,18.848ZM5.23,12.576v3.46a.734.734,0,0,0,.194.553A.8.8,0,0,0,6,16.774a1.685,1.685,0,0,0,.64-.132,2.385,2.385,0,0,0,.638-.382v.455h1.1V12.575h-1.1v3.142a1.416,1.416,0,0,1-.343.222.764.764,0,0,1-.308.086.326.326,0,0,1-.228-.065.287.287,0,0,1-.067-.212V12.576Zm5.294,3.848h0a1.43,1.43,0,0,0,.465.258,1.8,1.8,0,0,0,.571.083,1.11,1.11,0,0,0,.74-.217.767.767,0,0,0,.256-.623V13.8a.911.911,0,0,0-.274-.716,1.147,1.147,0,0,0-.788-.243,1.435,1.435,0,0,0-.5.091,1.774,1.774,0,0,0-.467.266V11.525h-1.1v5.191h1.1v-.292Zm4.717-3.844a1.964,1.964,0,0,0-1.163.323,1,1,0,0,0-.452.842v1.783a1.088,1.088,0,0,0,.41.9,1.767,1.767,0,0,0,1.125.327,1.946,1.946,0,0,0,1.193-.308,1.074,1.074,0,0,0,.4-.919v-.2H15.664v.181a.673.673,0,0,1-.107.454.536.536,0,0,1-.371.1.463.463,0,0,1-.361-.121.676.676,0,0,1-.1-.435v-.748h2.032V13.745a1.027,1.027,0,0,0-.391-.864A1.823,1.823,0,0,0,15.241,12.58ZM2.084,11.525v.746H3.142v4.381H4.165V12.272H5.224v-.746Zm8.96,4.639h0l-.263-.04a.942.942,0,0,1-.258-.136V13.6l.225-.116.231-.038a.52.52,0,0,1,.339.1.362.362,0,0,1,.114.294v1.979a.329.329,0,0,1-.094.262A.43.43,0,0,1,11.044,16.165ZM5.881,7.34H4.631V4.433L3.141,0H4.4l.811,2.936h.08L6.065,0H7.336L5.881,4.295V7.339Zm3.14-.012a1.924,1.924,0,0,1-1.226-.42,1.227,1.227,0,0,1-.458-1V3.36a1.058,1.058,0,0,1,.472-.911,2.138,2.138,0,0,1,1.265-.337,1.9,1.9,0,0,1,1.188.355,1.121,1.121,0,0,1,.461.922V5.931a1.189,1.189,0,0,1-.453.99A1.993,1.993,0,0,1,9.021,7.329Zm-.014-4.17a.746.746,0,0,0-.39.089.269.269,0,0,0-.149.235V5.9a.327.327,0,0,0,.139.283.67.67,0,0,0,.4.1.779.779,0,0,0,.422-.1A.321.321,0,0,0,9.586,5.9V3.483a.266.266,0,0,0-.159-.235A.838.838,0,0,0,9.006,3.159Zm3.523,4.167a.652.652,0,0,1-.517-.28,1.123,1.123,0,0,1-.174-.682V2.106h.987V6.013a.431.431,0,0,0,.065.26.23.23,0,0,0,.2.082.564.564,0,0,0,.276-.108,1.4,1.4,0,0,0,.305-.274V2.1h.99V7.2h-.99V6.637a2.119,2.119,0,0,1-.571.476l-.023.013A1.239,1.239,0,0,1,12.529,7.326Z" transform="translate(7.336 6.291)" fill="#fff"/>
  <path id="Path-2" data-name="Path" d="M.474,0A.5.5,0,0,0,.109.109.48.48,0,0,0,0,.465v.4H.94v-.4A.482.482,0,0,0,.828.109.486.486,0,0,0,.474,0Z" transform="translate(22.107 19.565)" fill="#fff"/>
</svg>
