<svg id="icon_twitter" data-name="icon/twitter" xmlns="http://www.w3.org/2000/svg" xmlns:xlink="http://www.w3.org/1999/xlink" width="33.659" height="33.659" viewBox="0 0 33.659 33.659">
  <defs>
    <linearGradient id="linear-gradient" x1="0.164" y1="-1.606" x2="0.657" y2="1.443" gradientUnits="objectBoundingBox">
      <stop offset="0" stop-color="#0d2537"/>
      <stop offset="1" stop-color="#008996"/>
    </linearGradient>
  </defs>
  <circle id="Oval" cx="16.829" cy="16.829" r="16.829" fill="url(#linear-gradient)"/>
  <path id="Path" d="M19.607,1.886a8.026,8.026,0,0,1-2.311.633A4.034,4.034,0,0,0,19.066.294a8.053,8.053,0,0,1-2.555.976,4.026,4.026,0,0,0-6.855,3.67A11.419,11.419,0,0,1,1.365.736,4.027,4.027,0,0,0,2.609,6.107,3.994,3.994,0,0,1,.788,5.6c0,.017,0,.034,0,.051A4.025,4.025,0,0,0,4.014,9.6a4.038,4.038,0,0,1-1.816.07,4.027,4.027,0,0,0,3.758,2.794,8.071,8.071,0,0,1-5,1.722A8.1,8.1,0,0,1,0,14.127a11.379,11.379,0,0,0,6.166,1.807A11.368,11.368,0,0,0,17.611,4.489c0-.174,0-.348-.012-.52a8.158,8.158,0,0,0,2.008-2.082Z" transform="translate(7.531 10.208)" fill="#fff"/>
</svg>
