<svg height="73" viewBox="0 0 71 73" width="71" xmlns="http://www.w3.org/2000/svg" xmlns:xlink="http://www.w3.org/1999/xlink"><linearGradient id="a"><stop offset="0" stop-color="#0d2537"/><stop offset="1" stop-color="#008996"/></linearGradient><linearGradient id="b" x1="16.360368%" x2="65.738445%" xlink:href="#a" y1="40.407492%" y2="54.295337%"/><linearGradient id="c" x1="16.360368%" x2="65.738445%" xlink:href="#a" y1="32.946652%" y2="57.636154%"/><linearGradient id="d" x1="17.933141%" x2="65.002617%" xlink:href="#a" y1="-160.618723%" y2="144.310925%"/><g fill="none" fill-rule="evenodd"><path d="m46.4516129 23.2258065c0 12.8271267-10.3986797 23.2258064-23.2258064 23.2258064-12.8271268 0-23.2258065-14.1342536-23.2258065-23.2258064 0-12.8271268 10.3986797-23.2258065 23.2258065-23.2258065 12.8271267 0 23.2258064 10.3986797 23.2258064 23.2258065" fill="#e5e5e5" fill-opacity=".75"/><path d="m53.9618492 13.7142857v-2.2857143c0-2.5245714-2.0552429-4.57142854-4.5901572-4.57142854h-22.950786c-2.5349144 0-4.5901572 2.04685714-4.5901572 4.57142854v2.2857143z" fill="#fff"/><path d="m21.8307488 53.7142857v4.5714286c0 2.1828571 2.3983571 4.5714286 4.5901572 4.5714286h22.950786c2.1918 0 4.5901572-2.3885715 4.5901572-4.5714286v-4.5714286z" fill="#fff"/><path d="m53.9618492 13.7142857v-2.2857143c0-2.5245714-2.0552429-4.57142854-4.5901572-4.57142854h-22.950786c-2.5349144 0-4.5901572 2.04685714-4.5901572 4.57142854v2.2857143z" fill="url(#b)" fill-opacity=".25"/><path d="m21.8307488 53.7142857v4.5714286c0 2.1828571 2.3983571 4.5714286 4.5901572 4.5714286h22.950786c2.1918 0 4.5901572-2.3885715 4.5901572-4.5714286v-4.5714286z" fill="url(#c)" fill-opacity=".25"/><path d="m21.8307488 53.7142857h32.1311004v-40h-32.1311004z" fill="#fff"/><path d="m12.6641854 52.5714286v8c0 4.9436445 3.9490991 8.969907 8.8809635 9.1200815l.2855999.0043424h11.475393v2.3225807h-11.475393c-6.2371828 0-11.314412-4.9512297-11.4847297-11.1265205l-.0044144-.3204841v-8zm53.9343471 5.7142857v2.2857143c0 6.2163919-4.9715143 11.2729841-11.1675848 11.4426082l-.3215592.0043964h-10.3278537v-2.3225807h10.3278537c4.968566 0 9.0114117-3.9329861 9.1622031-8.8402525l.0043603-.2841714v-2.2857143zm-28.7022335 11.4101382v2.3225807h-2.2950786v-2.3225807zm4.5901572 0v2.3225807h-2.2950786v-2.3225807zm6.8852358-63.99999997c3.1752168 0 5.7514475 2.56571927 5.7514475 5.73271887v46.8571429c0 2.8252853-2.919345 5.7327189-5.7514475 5.7327189h-22.950786c-2.8321026 0-5.7514476-2.9074336-5.7514476-5.7327189v-21.7142857h2.3225807l-.0008133 15.9804424h29.8091613v-37.6769033h-29.8091613l.0008133 14.839318h-2.3225807v-18.2857143c0-3.1669996 2.5762308-5.73271887 5.7514476-5.73271887zm3.42857 49.17899997h-29.81l.0017771 3.4108618c0 1.4341925 1.627351 3.1538134 3.1039403 3.3841812l.1575481.0189027.1673785.0070543h22.950786c1.5514976 0 3.4288669-1.8697093 3.4288669-3.4101382zm-11.4613451 2.2495715v2.3225806h-5.7376965v-2.3225806zm25.2596156-3.4101383v2.2857143h-2.3225806v-2.2857143zm0-4.5714286v2.2857143h-2.3225806v-2.2857143zm-53.9343471-1.1428571v2.2857143h-2.3225807v-2.2857143zm48.1828996-35.4470046c3.0916584 0 5.6154416 2.4324582 5.7461313 5.4839776l.0053162.2487413-.0002705 24.6311382 2.6096615-2.5968286 1.6389518 1.6456664-5.4096331 5.3875609-5.4096331-5.3875609 1.6389518-1.6456664 2.6087011 2.5978286.0006899-24.6321382c0-1.8149238-1.4266224-3.300544-3.2273052-3.4043448l-.2015617-.0057935h-3.4426179v-2.3225806zm-48.1828996 30.875576v2.2857143h-2.3225807v-2.2857143zm22.6089716-15.679976 5.4163614 5.3942617-5.4163614 5.3942618-1.6389518-1.6456664 2.5960568-2.5876-20.1372097.000295c-1.8269472 0-3.3188176 1.4208015-3.4230495 3.2098886l-.0058174.2002496v3.4285714h-2.3225807v-3.4285714c0-3.0836575 2.4424238-5.5972646 5.502053-5.7274242l.2493946-.0052947 20.1382097-.0007143-2.5970568-2.5865907zm-16.8850261-15.1956v2.3225806h-2.2950786c-1.8269472 0-3.3188176 1.4208015-3.4230495 3.2098887l-.0058174.2002496-.0009234 6.3461382 2.6103144-2.5975428 1.6389518 1.6456664-5.4096331 5.3875608-5.40963315-5.3875608 1.63895179-1.6456664 2.60904826 2.5975428.0003427-6.3461382c0-3.0836575 2.4424238-5.5972647 5.502053-5.7274243l.2493946-.0052946zm30.9835611-4.53456222h-22.950786c-1.8946119 0-3.4288669 1.52799502-3.4288669 3.41013822l-.0008133 1.1238157h29.8093331v-1.1238157c0-1.8149238-1.4266224-3.300544-3.2273052-3.40434477z" fill="url(#d)"/></g></svg>