<svg xmlns="http://www.w3.org/2000/svg" width="15.996" height="16" viewBox="0 0 15.996 16">
  <g id="Icons_Filled_Menu" data-name="Icons / Filled / Menu" transform="translate(-0.002 0)">
    <path id="language" d="M8,16a7.481,7.481,0,0,1-.907-.055c-.046,0-.093-.013-.139-.021l-.072-.012c-.237-.033-.464-.074-.691-.126-.047-.011-.093-.024-.14-.036l-.067-.018c-.227-.06-.458-.131-.687-.212-.044-.014-.087-.03-.132-.046l-.031-.011c-.254-.1-.5-.209-.743-.33l-.039-.02L4.324,15.1a8.023,8.023,0,0,1-1.516-1.024c-.026-.022-.05-.044-.074-.067L2.7,13.981c-.189-.167-.371-.344-.541-.526-.047-.05-.093-.1-.139-.153-.162-.182-.321-.38-.474-.588-.009-.013-.02-.025-.03-.037a.429.429,0,0,1-.035-.044v-.016a7.951,7.951,0,0,1,0-9.236l.007-.015a.505.505,0,0,1,.039-.05l.026-.031c.148-.2.307-.4.474-.588.046-.051.092-.1.139-.153.171-.183.353-.36.541-.526l.04-.037c.021-.02.041-.039.063-.057A8.037,8.037,0,0,1,4.329.9L4.364.884,4.4.869c.23-.117.48-.229.742-.332.032-.011.067-.023.1-.037L5.3.481C5.527.4,5.758.328,5.988.268L6,.264c.063-.017.127-.035.192-.05.217-.05.443-.092.69-.127l.1-.014c.04-.007.079-.013.12-.018a7.539,7.539,0,0,1,1.813,0c.04,0,.08.011.119.018l.093.015c.24.034.466.076.69.127.063.014.121.03.183.047l.025.007c.231.06.462.132.685.212l.1.036.059.021a7.839,7.839,0,0,1,.743.332l.033.016L11.68.9A8.018,8.018,0,0,1,13.2,1.925l.044.04.058.053c.193.171.374.348.54.526.047.05.094.1.139.153.166.188.326.386.474.588l.029.036a.574.574,0,0,1,.036.045.089.089,0,0,1,0,.015,7.951,7.951,0,0,1,0,9.236l-.006.015a.473.473,0,0,1-.034.042.415.415,0,0,0-.032.039c-.148.2-.307.4-.474.588-.054.062-.1.109-.139.153a7.285,7.285,0,0,1-.54.526l-.043.039-.06.054A8.081,8.081,0,0,1,11.676,15.1l-.028.014-.039.02a8.114,8.114,0,0,1-.743.33l-.1.033-.068.024c-.225.081-.456.152-.686.212l-.062.017-.145.037c-.217.05-.45.093-.691.126l-.073.012c-.045.008-.092.015-.138.021A7.5,7.5,0,0,1,8,16Zm2.756-4.313a14.574,14.574,0,0,1-1.538,3.055l.1-.015c.047-.007.1-.014.14-.024l.05-.013.046-.012c.224-.055.422-.111.606-.172l.09-.033c.193-.065.388-.142.581-.229l.049-.024.049-.024c.18-.085.36-.18.533-.281l.114-.069c.173-.107.33-.213.48-.323h0l.116-.085c.152-.118.3-.242.437-.368l.029-.026.081-.074c.143-.136.284-.283.421-.438l.026-.029.026-.029a9.652,9.652,0,0,0-2.437-.787Zm-5.506,0a9.633,9.633,0,0,0-2.438.784l.027.028.027.028c.146.166.284.309.42.438.023.023.048.045.074.067l.037.033a4.9,4.9,0,0,0,.437.368,1.108,1.108,0,0,0,.1.071l.024.017c.154.113.316.222.481.323l.113.069c.174.1.354.2.533.281l.049.024.049.024c.191.084.386.161.58.229q.045.018.09.033a6.23,6.23,0,0,0,.607.172l.057.015.038.01c.049.011.1.018.149.025l.09.014a14.546,14.546,0,0,1-1.545-3.053ZM8,11.429a14.988,14.988,0,0,0-1.589.085A13.829,13.829,0,0,0,8,14.486a13.883,13.883,0,0,0,1.591-2.972A14.747,14.747,0,0,0,8,11.429Zm3.406-2.858a10.644,10.644,0,0,1-.319,2.018,10.287,10.287,0,0,1,2.779.948,6.837,6.837,0,0,0,.964-2.965Zm-10.236,0a6.849,6.849,0,0,0,.964,2.965,10.305,10.305,0,0,1,2.78-.948A10.648,10.648,0,0,1,4.6,8.571Zm6.851,1.715A16.5,16.5,0,0,1,9.95,10.4a9.494,9.494,0,0,0,.315-1.83H5.736A9.561,9.561,0,0,0,6.05,10.4,16.721,16.721,0,0,1,8,10.286Zm5.844-5.822a10.3,10.3,0,0,1-2.78.948,10.558,10.558,0,0,1,.32,2.017h3.424a6.835,6.835,0,0,0-.964-2.965Zm-11.732,0a6.847,6.847,0,0,0-.964,2.965H4.6a10.646,10.646,0,0,1,.32-2.017,10.332,10.332,0,0,1-2.783-.948ZM6.052,5.6a9.487,9.487,0,0,0-.315,1.828h4.532A9.6,9.6,0,0,0,9.956,5.6,16.354,16.354,0,0,1,8,5.714H7.98A16.488,16.488,0,0,1,6.052,5.6ZM8,1.514A13.954,13.954,0,0,0,6.41,4.486,15.459,15.459,0,0,0,8,4.571a15.058,15.058,0,0,0,1.6-.085A13.825,13.825,0,0,0,8,1.514Zm1.216-.255a14.52,14.52,0,0,1,1.538,3.054,9.6,9.6,0,0,0,2.438-.783l-.018-.019-.035-.039c-.146-.164-.284-.308-.421-.437-.036-.034-.073-.067-.11-.1a5.33,5.33,0,0,0-.438-.368c-.036-.029-.075-.058-.12-.088-.153-.114-.314-.223-.48-.324l-.114-.068c-.174-.1-.354-.2-.533-.281l-.032-.016-.066-.032c-.184-.082-.374-.157-.581-.229L10.2,1.514,10.157,1.5a6.148,6.148,0,0,0-.606-.172L9.5,1.311,9.456,1.3c-.046-.01-.094-.017-.14-.024Zm-2.43,0-.1.016c-.046.007-.094.014-.14.024l-.05.013-.046.012c-.237.058-.429.112-.606.172-.021.006-.04.014-.058.021l-.032.012c-.194.066-.389.143-.58.229l-.05.024L5.08,1.8c-.179.084-.359.179-.533.281l-.114.069c-.161.1-.323.207-.481.323l-.061.046-.058.044c-.154.118-.3.242-.438.367l-.032.029c-.026.023-.053.047-.078.071-.139.132-.277.275-.42.437L2.838,3.5l-.027.029a9.544,9.544,0,0,0,2.437.783,14.61,14.61,0,0,1,1.54-3.053Z" fill="#fff"/>
  </g>
</svg>
