<svg xmlns="http://www.w3.org/2000/svg" width="15.333" height="11.333" viewBox="0 0 15.333 11.333">
  <defs>
    <style>
      .cls-1 {
        fill: #fff;
        fill-rule: evenodd;
      }
    </style>
  </defs>
  <g id="Layer_2" data-name="Layer 2">
    <g id="Layer_1-2" data-name="Layer 1">
      <path id="Path" class="cls-1" d="M10.325,11.163a.523.523,0,0,1-.772,0,.594.594,0,0,1,0-.8L13.471,6.24H.541A.553.553,0,0,1,0,5.671a.559.559,0,0,1,.541-.577h12.93L9.553.983a.605.605,0,0,1,0-.813.523.523,0,0,1,.772,0l4.846,5.094a.58.58,0,0,1,0,.8Z"/>
    </g>
  </g>
</svg>
